{"title":"Killer Klowns From Outer Space (1988) &amp; Extras 1080p","uid":12179870,"size":5457253896,"categoryP":"video","categoryS":"hd___movies","magnet":"?xt=urn:btih:276ab492c11999a00daa19b069627cf11d31b12b&amp;dn=Killer+Klowns+From+Outer+Space+%281988%29+%26amp%3B+Extras+1080p&amp;tr=udp%3A%2F%2Ftracker.openbittorrent.com%3A80&amp;tr=udp%3A%2F%2Fopen.demonii.com%3A1337&amp;tr=udp%3A%2F%2Ftracker.coppersurfer.tk%3A6969&amp;tr=udp%3A%2F%2Fexodus.desync.com%3A6969","seeders":3,"leechers":1,"uploader":"AlienMethod","files":50,"time":1438410174,"description":"x264/mp4\n2-Channel AAC@320kbps (audio 1)\n2-Channel AC3@224kbps (audio 2)\nBluRay Xtras Incl.\nEnglish Subs Incl.\nKiller Klowns Soundtrack (2006) mp3 Incl.\n\n&quot;Aliens who look like clowns come from outer space and terrorize a small town.&quot;\n\n\nGeneral\nComplete name : F:TorrentsKiller Klowns From Outer Space (1988)\nKiller Klowns from Outer Space (1988) 1080p.mp4\nFormat : MPEG-4\nFormat profile : Base Media\nCodec ID : isom\nFile size : 3.92 GiB\nDuration : 1h 26mn\nOverall bit rate mode : Variable\nOverall bit rate : 6 509 Kbps\nEncoded date : UTC 2015-07-31 03:07:02\nTagged date : UTC 2015-07-31 03:07:02\nWriting application : My MP4Box GUI 0.6.0.6 \n\nVideo\nID : 1\nFormat : AVC\nFormat/Info : Advanced Video Codec\nFormat profile : &lt;a class=&quot;__cf_email__&quot; href=&quot;/cdn-cgi/l/email-protection&quot; data-cfemail=&quot;f5bd9c929db5b9c1dbc5&quot;&gt;[email&amp;#160;protected]&lt;/a&gt;&lt;script data-cfhash='f9e31' type=&quot;text/javascript&quot;&gt;\n/* &lt;![CDATA[ */!function(){try{var t=&quot;currentScript&quot;in document?document.currentScript:function(){for(var t=document.getElementsByTagName(&quot;script&quot;),e=t.length;e--;)if(t[e].getAttribute(&quot;data-cfhash&quot;))return t[e]}();if(t&amp;&amp;t.previousSibling){var e,r,n,i,c=t.previousSibling,a=c.getAttribute(&quot;data-cfemail&quot;);if(a){for(e=&quot;&quot;,r=parseInt(a.substr(0,2),16),n=2;a.length-n;n+=2)i=parseInt(a.substr(n,2),16)^r,e+=String.fromCharCode(i);e=document.createTextNode(e),c.parentNode.replaceChild(e,c)}t.parentNode.removeChild(t);}}catch(u){}}()/* ]]&gt; */&lt;/script&gt;\nFormat settings, CABAC : Yes\nFormat settings, ReFrames : 4 frames\nCodec ID : avc1\nCodec ID/Info : Advanced Video Coding\nDuration : 1h 26mn\nBit rate : 5 840 Kbps\nMaximum bit rate : 19.3 Mbps\nWidth : 1 904 pixels\nHeight : 1 040 pixels\nDisplay aspect ratio : 1.85:1\nFrame rate mode : Constant\nFrame rate : 23.976 fps\nColor space : YUV\nChroma subsampling : 4:2:0\nBit depth : 8 bits\nScan type : Progressive\nBits/(Pixel*Frame) : 0.123\nStream size : 3.52 GiB (90%)\nTitle : Killer Klowns(Encode).h264\nWriting library : x264 core 142 r2479 dd79a61\nEncoded date : UTC 2015-07-31 03:07:02\nTagged date : UTC 2015-07-31 03:07:30\n\nAudio #1\nID : 2\nFormat : AAC\nFormat/Info : Advanced Audio Codec\nFormat profile : LC\nCodec ID : 40\nDuration : 1h 26mn\nBit rate mode : Variable\nBit rate : 441 Kbps\nMaximum bit rate : 475 Kbps\nChannel(s) : 2 channels\nChannel positions : Front: L R\nSampling rate : 48.0 KHz\nCompression mode : Lossy\nStream size : 272 MiB (7%)\nTitle : Killer Klowns AAC.m4a\nEncoded date : UTC 2015-07-31 03:07:25\nTagged date : UTC 2015-07-31 03:07:30\n\nAudio #2\nID : 3\nFormat : AC-3\nFormat/Info : Audio Coding 3\nMode extension : CM (complete main)\nFormat settings, Endianness : Big\nCodec ID : ac-3\nDuration : 1h 26mn\nBit rate mode : Constant\nBit rate : 224 Kbps\nChannel(s) : 2 channels\nChannel positions : Front: L R\nSampling rate : 48.0 KHz\nBit depth : 16 bits\nCompression mode : Lossy\nStream size : 138 MiB (3%)\nTitle : Killer Klowns AC3.ac3\nEncoded date : UTC 2015-07-31 03:07:27\nTagged date : UTC 2015-07-31 03:07:30","torrent":{"xt":"urn:btih:276ab492c11999a00daa19b069627cf11d31b12b","amp;dn":"Killer+Klowns+From+Outer+Space+%281988%29+%26amp%3B+Extras+1080p","amp;tr":["udp%3A%2F%2Ftracker.openbittorrent.com%3A80","udp%3A%2F%2Fopen.demonii.com%3A1337","udp%3A%2F%2Ftracker.coppersurfer.tk%3A6969","udp%3A%2F%2Fexodus.desync.com%3A6969"],"infoHash":"276ab492c11999a00daa19b069627cf11d31b12b","infoHashBuffer":{"type":"Buffer","data":[39,106,180,146,193,25,153,160,13,170,25,176,105,98,124,241,29,49,177,43]},"announce":[],"urlList":[]}}